<svg version="1" xmlns="http://www.w3.org/2000/svg" width="853.333" height="853.333" viewBox="0 0 640.000000 640.000000"><path d="M136.2 240.6c-5.3 3.7-6.7 13-2.5 17.6 4.2 4.8 4.5 4.8 67.7 4.8 65.4 0 65.4 0 68.9-5.9.9-1.6 1.7-4.8 1.7-7.1 0-3.4-.6-4.8-3.4-7.6l-3.4-3.4h-63.4c-55.8 0-63.6.2-65.6 1.6zM389.3 327.5c-6.7 2.9-8.4 13.9-2.9 19.4l2.6 2.6 40.6.3 40.5.3 3.5-3.5c2.8-2.8 3.4-4.2 3.4-7.5 0-5.7-2.4-10-6.5-11.7-4.9-2-76.5-2-81.2.1zM136.8 328.6c-5.3 2.8-7.3 10.5-4.3 16.4 3.3 6.3-2 6 103.5 6 103.9 0 99.6.2 103.4-5.2 2.1-2.9 2.1-10.7 0-13.6-3.8-5.4.6-5.2-103.6-5.2-83.2.1-96.7.3-99 1.6zM301.2 420.8c-6.2 5.8-4.8 15.6 2.8 19.4 3.2 1.7 9.1 1.8 79.5 1.8s76.3-.1 79.5-1.8c7.2-3.6 8.9-12.7 3.5-18.9l-2.3-2.8-80-.3-80-.2-3 2.8z"/></svg>